<?xml version="1.0" encoding="UTF-8" standalone="no"?>
<!-- Created with Inkscape (http://www.inkscape.org/) -->

<svg
   xmlns:dc="http://purl.org/dc/elements/1.1/"
   xmlns:cc="http://creativecommons.org/ns#"
   xmlns:rdf="http://www.w3.org/1999/02/22-rdf-syntax-ns#"
   xmlns:svg="http://www.w3.org/2000/svg"
   xmlns="http://www.w3.org/2000/svg"
   xmlns:sodipodi="http://sodipodi.sourceforge.net/DTD/sodipodi-0.dtd"
   xmlns:inkscape="http://www.inkscape.org/namespaces/inkscape"
   width="64px"
   height="64px"
   id="svg2985"
   version="1.1"
   inkscape:version="0.48.2 r9819"
   sodipodi:docname="Nouveau document 2">
  <defs
     id="defs2987" />
  <sodipodi:namedview
     id="base"
     pagecolor="#ffffff"
     bordercolor="#666666"
     borderopacity="1.0"
     inkscape:pageopacity="0.0"
     inkscape:pageshadow="2"
     inkscape:zoom="5.5"
     inkscape:cx="32"
     inkscape:cy="32"
     inkscape:current-layer="layer1"
     showgrid="true"
     inkscape:document-units="px"
     inkscape:grid-bbox="true"
     inkscape:window-width="774"
     inkscape:window-height="597"
     inkscape:window-x="660"
     inkscape:window-y="79"
     inkscape:window-maximized="0" />
  <metadata
     id="metadata2990">
    <rdf:RDF>
      <cc:Work
         rdf:about="">
        <dc:format>image/svg+xml</dc:format>
        <dc:type
           rdf:resource="http://purl.org/dc/dcmitype/StillImage" />
        <dc:title></dc:title>
      </cc:Work>
    </rdf:RDF>
  </metadata>
  <g
     id="layer1"
     inkscape:label="Layer 1"
     inkscape:groupmode="layer">
    <path
       style="fill:#000000;fill-opacity:1;stroke:#000000;stroke-width:2.45099998;stroke-miterlimit:4;stroke-opacity:1;stroke-dasharray:none"
       d="M 32.09375 3.28125 C 16.880816 3.28125 4.53125 15.773735 4.53125 31.1875 C 4.53125 46.601265 16.880816 59.09375 32.09375 59.09375 C 45.17377 59.09375 56.123959 49.855965 58.9375 37.46875 L 34.125 37.46875 C 32.185453 38.504937 29.932538 39.09375 27.5625 39.09375 C 20.060335 39.09375 14 33.192006 14 25.90625 C 14 18.620494 20.060335 12.71875 27.5625 12.71875 C 35.064665 12.71875 41.15625 18.620494 41.15625 25.90625 C 41.15625 26.181481 41.142107 26.4477 41.125 26.71875 L 59.28125 26.71875 C 57.170309 13.429378 45.805358 3.28125 32.09375 3.28125 z "
       id="path2993" />
    <path
       sodipodi:type="arc"
       style="fill:#ffffff;fill-opacity:1;stroke:#000000;stroke-width:2.45099998;stroke-miterlimit:4;stroke-opacity:1;stroke-dasharray:none"
       id="path3005"
       sodipodi:cx="27"
       sodipodi:cy="26.181818"
       sodipodi:rx="6.818182"
       sodipodi:ry="6.7272725"
       d="m 33.818182,26.181818 a 6.818182,6.7272725 0 1 1 -13.636364,0 6.818182,6.7272725 0 1 1 13.636364,0 z"
       transform="translate(0.36363636,0)" />
    <path
       style="fill:none;stroke:#000000;stroke-width:1px;stroke-linecap:butt;stroke-linejoin:miter;stroke-opacity:1"
       d="M 61.636364,32 31.454545,32"
       id="path3007"
       inkscape:connector-curvature="0" />
  </g>
</svg>
